<?xml version="1.0" encoding="UTF-8" standalone="no"?>
<svg
   id="Camada_1"
   data-name="Camada 1"
   viewBox="0 0 1580.41 817.47005"
   version="1.1"
   sodipodi:docname="Logo-USP-FOB.svg"
   width="1580.41"
   height="817.47003"
   inkscape:version="1.4.2 (ebf0e940d0, 2025-05-08)"
   xmlns:inkscape="http://www.inkscape.org/namespaces/inkscape"
   xmlns:sodipodi="http://sodipodi.sourceforge.net/DTD/sodipodi-0.dtd"
   xmlns="http://www.w3.org/2000/svg"
   xmlns:svg="http://www.w3.org/2000/svg"
   xmlns:rdf="http://www.w3.org/1999/02/22-rdf-syntax-ns#"
   xmlns:cc="http://creativecommons.org/ns#"
   xmlns:dc="http://purl.org/dc/elements/1.1/">
  <sodipodi:namedview
     id="namedview50"
     pagecolor="#ffffff"
     bordercolor="#000000"
     borderopacity="0.25"
     inkscape:showpageshadow="2"
     inkscape:pageopacity="0.0"
     inkscape:pagecheckerboard="0"
     inkscape:deskcolor="#d1d1d1"
     inkscape:zoom="0.44217745"
     inkscape:cx="773.44514"
     inkscape:cy="483.96859"
     inkscape:window-width="1536"
     inkscape:window-height="827"
     inkscape:window-x="0"
     inkscape:window-y="0"
     inkscape:window-maximized="1"
     inkscape:current-layer="Camada_1" />
  <defs
     id="defs1">
    <style
       id="style1">.cls-1{fill-rule:evenodd;}</style>
  </defs>
  <title
     id="title1">logo-USP-FOB</title>
  <path
     class="cls-1"
     d="m 512.55,491.35 c 0,58.81 -48,106.77 -106.78,106.77 v 42.72 A 149.66,149.66 0 0 0 533.91,568.19 V 491.35 Z M 1179.81,0 h -5.17 v 42.71 a 107,107 0 0 0 -106.81,106.74 h -21.36 V 72.64 A 149.67,149.67 0 0 1 1174.39,0 h 0.22 v 42.71 l 256.28,0.11 V 0.08 Z M 555.26,491.35 c 0,58.81 48,106.77 106.8,106.77 v 42.72 A 149.66,149.66 0 0 1 533.91,568.19 V 491.35 Z M 1025.1,149.56 h 21.37 V 72.72 A 149.64,149.64 0 0 0 918.32,0.07 v 42.71 a 107,107 0 0 1 106.78,106.78 z m 0,341.73 c 0,58.8 -48,106.9 -106.78,106.9 v 42.59 c 82.35,0 149.51,-67.17 149.51,-149.49 z m 512.54,-341.72 v 0 234.88 H 1324.12 V 149.57 h -42.72 v 448.49 h -213.57 v 42.75 h 256.29 V 427.2 h 256.29 V 149.57 c 0,-82.34 -67.16,-149.49 -149.52,-149.49 v 42.7 c 58.8,0 106.78,48 106.78,106.79 z M 42.64,491.29 H 0 V 0.08 h 512.55 v 42.7 H 298.99 v 447.6 H 256.27 V 42.78 H 42.71 V 491.29 H 0 c 0,82.32 67.15,149.49 149.49,149.49 V 598.06 A 107,107 0 0 1 42.71,491.29 Z M 662.09,0.08 c -78.26,0 -149.67,67.5 -149.54,149.44 h 42.75 c 0,-60.71 49.6,-106.81 106.78,-106.83 -0.14,-20.33 -0.12,-27.08 0,-42.61 z m 405.84,396.89 -0.1,94.32 h -42.73 v -76.6 L 775.27,164.45 805.21,134.18 Z M 512.55,243.89 775.27,506.68 805.21,476.45 555.3,226.17 V 149.52 H 512.55 Z M 149.49,598.06 h 256.32 v 42.76 H 149.49 Z M 662.06,0.06 H 918.35 V 42.82 L 662.06,42.69 V 0.09 Z m 0,598 256.29,0.16 v 42.51 l -256.29,-0.07 z"
     id="path1" />
  <path
     d="M 22.35,729.34 H 40.2 v 48.19 q 0,15.78 5,21.18 5,5.4 13.54,5.31 9,0 13.92,-5.82 4.92,-5.82 4.88,-20.67 v -48.19 h 17.84 v 54.92 q 0,15.15 -10.08,24.15 -10.08,9 -26.43,9 -17.7,0 -27.11,-8.84 -9.41,-8.84 -9.41,-26.07 z m 36.58,-7.21 z m 0,93.54 z M 14,727.57 Z"
     id="path2" />
  <path
     d="m 112.49,815.67 v -60.63 h 16.33 v 9.41 a 22.21,22.21 0 0 1 8.55,-8.49 23.34,23.34 0 0 1 11,-2.53 q 10.24,0 16,6.37 5.76,6.37 5.82,22.07 v 33.84 h -16.31 v -35.33 q 0,-16.36 -11.54,-16.35 a 11.53,11.53 0 0 0 -6.13,1.75 12.89,12.89 0 0 0 -4.41,4.49 q -3,4.14 -3,13.31 v 32.09 z m 30.89,-67.72 z m -2,67.72 z"
     id="path3" />
  <path
     d="m 184.37,755.04 h 16.33 v 60.63 h -16.33 z m -0.51,-26.71 h 17.34 v 15.7 h -17.34 z m 8.23,87.34 z"
     id="path4" />
  <polygon
     points="219.06,815.67 197.04,755.04 215.2,755.04 229.82,801.45 229.87,801.45 244.08,755.04 260.71,755.04 239.57,815.67 "
     id="polygon4"
     transform="translate(14)" />
  <path
     d="m 299.41,789.21 q 0,17.47 12.25,17.47 a 12,12 0 0 0 7.43,-2.47 8.46,8.46 0 0 0 3.35,-7.27 h 16.33 a 17.79,17.79 0 0 1 -7.21,14.89 q -7.25,5.48 -19.52,5.48 c -9.6,0 -16.81,-2.7 -21.68,-8.1 -4.87,-5.4 -7.28,-13.14 -7.28,-23.08 0,-10.18 2.57,-18.2 7.72,-24 5.15,-5.8 12.42,-8.74 21.71,-8.74 q 12.84,0 20.06,8 7.22,8 7.21,23.92 v 3.9 z m 0,-10 h 24.05 q -1.05,-15.18 -11.63,-15.18 a 10.75,10.75 0 0 0 -8.71,3.81 c -2.15,2.49 -3.38,6.29 -3.71,11.37 z m 12.91,-31.26 z m -0.26,67.72 z"
     id="path5" />
  <path
     d="m 353.16,815.67 v -60.63 h 16.33 v 10 q 3.76,-7 7.66,-9.31 a 16.16,16.16 0 0 1 8.39,-2.34 h 1.29 v 15.34 a 43.64,43.64 0 0 1 -5.8,0.49 9.76,9.76 0 0 0 -5.32,1.49 10.73,10.73 0 0 0 -3.82,4.52 15.6,15.6 0 0 0 -2,6.58 66.63,66.63 0 0 0 -0.38,7 v 26.88 z m 16.2,-67.72 z m -8.23,67.72 z"
     id="path6" />
  <path
     d="m 395.27,796.18 h 16.37 q 0.85,10.5 10.75,10.5 a 12.74,12.74 0 0 0 7.11,-2 6.54,6.54 0 0 0 3.15,-5.74 c 0,-2.81 -1.88,-4.83 -5.63,-6 -2.6,-0.9 -5.72,-1.81 -9.39,-2.72 q -9.18,-2.4 -13.15,-5.06 -7.65,-4.85 -7.65,-13.5 c 0,-5 2.21,-9.33 6.66,-12.87 4.45,-3.54 10.8,-5.32 19.05,-5.32 q 10.8,0 17.17,4.33 6.37,4.33 7,14.91 h -16.38 c -0.38,-3.5 -1.29,-5.82 -2.72,-6.94 a 9.88,9.88 0 0 0 -6.14,-1.66 c -3,0 -5.25,0.63 -6.82,1.87 a 5.68,5.68 0 0 0 -2.29,4.6 c 0,2.24 1.7,4 5.12,5.11 1.25,0.44 5.23,1.62 12,3.52 2.47,0.7 5,1.54 7.47,2.49 q 11.24,4.5 11.25,15.46 a 17.59,17.59 0 0 1 -7.34,14.6 q -7.35,5.64 -19.33,5.63 -11.42,0 -18.84,-4.93 -7.42,-4.93 -7.4,-16.2 z m 27,-48.23 z m 0,67.72 z"
     id="path7" />
  <path
     d="m 459.82,755.04 h 16.33 v 60.63 h -16.33 z m -0.5,-26.71 h 17.32 v 15.7 h -17.32 z m 8.22,87.34 z"
     id="path8" />
  <path
     d="m 531.8,761.11 v -32.66 h 16.33 v 87.21 H 531.8 v -9.37 a 19.74,19.74 0 0 1 -6.92,7.91 19.1,19.1 0 0 1 -11.12,3.1 q -11.61,0 -18.39,-8.29 -6.78,-8.29 -6.73,-23.13 0,-14.17 6.73,-23.33 6.73,-9.16 19.09,-9.16 a 24,24 0 0 1 9.14,1.75 22.78,22.78 0 0 1 8.2,6 z m -26.83,25.28 q 0,9.67 3.46,15 a 11.43,11.43 0 0 0 10.21,5.29 10.9,10.9 0 0 0 8.42,-3.71 c 3.5,-3.76 5.25,-9.83 5.25,-18.25 q 0,-13.23 -5.13,-18.23 a 13.18,13.18 0 0 0 -8.23,-2.46 11.6,11.6 0 0 0 -10.31,5.59 q -3.65,5.57 -3.65,16.77 z"
     id="path9" />
  <path
     d="m 563.17,772.76 q 0,-9.69 6.67,-14.49 6.67,-4.8 19.7,-4.88 13.17,0 20.13,5.19 6.96,5.19 7,17.45 v 22.42 c 0,7.51 0.51,13.22 1.52,17.19 h -15.55 l -1.24,-7.19 a 22.37,22.37 0 0 1 -8.78,7 28.08,28.08 0 0 1 -10.55,1.85 c -6.87,0 -12.13,-1.7 -15.73,-5.12 -3.6,-3.42 -5.45,-8 -5.45,-13.67 a 19.32,19.32 0 0 1 7.6,-16 q 7.7,-5.91 28.63,-5.92 h 3.27 v -3.55 a 8.55,8.55 0 0 0 -2.54,-6.49 c -1.7,-1.67 -4.45,-2.49 -8.24,-2.49 q -10.1,0 -10.11,8.73 z m 37.22,13.8 c -10.19,0 -16.63,1.14 -19.26,3.41 a 10.11,10.11 0 0 0 -3.91,7.83 8.08,8.08 0 0 0 2.79,6.52 11.25,11.25 0 0 0 7.42,2.36 c 4.48,0 7.72,-1.5 9.79,-4.47 2.07,-2.97 3.17,-7.32 3.17,-12.91 z m -11.14,-38.61 z m 16.58,67.72 z"
     id="path10" />
  <path
     d="m 671.86,761.11 v -32.66 h 16.33 v 87.21 h -16.33 v -9.37 a 19.74,19.74 0 0 1 -6.92,7.91 19.12,19.12 0 0 1 -11.12,3.1 q -11.61,0 -18.39,-8.29 -6.78,-8.29 -6.73,-23.14 0,-14.17 6.73,-23.33 6.73,-9.16 19.09,-9.16 a 23.9,23.9 0 0 1 9.13,1.75 22.81,22.81 0 0 1 8.21,6 z m -26.83,25.28 q 0,9.67 3.46,15 a 11.43,11.43 0 0 0 10.21,5.27 10.86,10.86 0 0 0 8.41,-3.71 c 3.51,-3.76 5.26,-9.83 5.26,-18.25 q 0,-13.23 -5.13,-18.23 a 13.18,13.18 0 0 0 -8.23,-2.46 11.6,11.6 0 0 0 -10.37,5.61 q -3.64,5.57 -3.65,16.77 z"
     id="path11" />
  <path
     d="m 717.28,789.21 q 0,17.47 12.26,17.47 a 12,12 0 0 0 7.42,-2.47 8.44,8.44 0 0 0 3.36,-7.27 h 16.32 a 17.8,17.8 0 0 1 -7.22,14.89 q -7.24,5.48 -19.51,5.48 -14.4,0 -21.69,-8.1 -7.29,-8.1 -7.28,-23.08 c 0,-10.18 2.58,-18.2 7.72,-24 5.14,-5.8 12.43,-8.74 21.71,-8.74 q 12.85,0 20.06,8 7.21,8 7.21,23.92 v 3.9 z m 0,-10 h 24.05 q -1.05,-15.18 -11.62,-15.18 a 10.77,10.77 0 0 0 -8.72,3.81 c -2.15,2.49 -3.37,6.29 -3.71,11.37 z m 12.91,-31.26 z m -0.25,67.72 z"
     id="path12" />
  <path
     d="m 853.94,761.11 v -32.66 h 16.33 v 87.21 h -16.33 v -9.37 a 19.74,19.74 0 0 1 -6.92,7.91 19.1,19.1 0 0 1 -11.12,3.1 q -11.61,0 -18.39,-8.29 -6.78,-8.29 -6.73,-23.14 0,-14.17 6.73,-23.33 6.73,-9.16 19.13,-9.15 a 23.9,23.9 0 0 1 9.13,1.75 22.81,22.81 0 0 1 8.21,6 z m -26.83,25.28 q 0,9.67 3.46,15 a 11.43,11.43 0 0 0 10.21,5.27 10.86,10.86 0 0 0 8.41,-3.71 c 3.51,-3.76 5.26,-9.83 5.26,-18.25 q 0,-13.23 -5.13,-18.23 a 13.18,13.18 0 0 0 -8.23,-2.46 11.6,11.6 0 0 0 -10.33,5.59 q -3.64,5.57 -3.65,16.77 z"
     id="path13" />
  <path
     d="m 899.36,789.21 q 0,17.47 12.26,17.47 a 12,12 0 0 0 7.42,-2.47 8.44,8.44 0 0 0 3.36,-7.27 h 16.33 a 17.8,17.8 0 0 1 -7.22,14.89 q -7.25,5.48 -19.51,5.48 -14.4,0 -21.69,-8.1 -7.29,-8.1 -7.28,-23.08 c 0,-10.18 2.58,-18.2 7.72,-24 5.14,-5.8 12.43,-8.74 21.71,-8.74 q 12.85,0 20.06,8 7.21,8 7.22,23.92 v 3.9 z m 0,-10 h 24 c -0.69,-10.12 -4.58,-15.18 -11.62,-15.18 a 10.78,10.78 0 0 0 -8.72,3.81 c -2.15,2.49 -3.37,6.29 -3.71,11.37 z m 12.91,-31.26 z m -0.25,67.72 z"
     id="path14" />
  <path
     d="m 993.49,788.08 h 17.85 c 0.17,5.88 1.75,10 4.75,12.42 3,2.42 7.11,3.52 12.34,3.52 a 22.32,22.32 0 0 0 11.9,-3 9.82,9.82 0 0 0 4.93,-8.8 6.19,6.19 0 0 0 -2.28,-5.25 20.66,20.66 0 0 0 -6.32,-3.23 q -3.24,-1.23 -15.09,-4.75 c -7.89,-2.38 -13.33,-4.66 -16.33,-6.79 a 20.25,20.25 0 0 1 -9.22,-17.62 24.22,24.22 0 0 1 9.1,-19.32 q 9.07,-7.66 24.43,-7.66 13.63,0 22.32,6.67 8.69,6.67 8.71,19.91 h -17.85 c 0,-4.45 -1.26,-7.74 -3.82,-9.89 a 14.47,14.47 0 0 0 -9.81,-3.27 18.41,18.41 0 0 0 -10.8,3.1 c -3,2.07 -4.43,4.64 -4.43,7.74 0,3.67 2.22,6.48 6.63,8.42 q 3.6,1.77 15.27,5.19 11.67,3.42 14.79,4.94 c 4.37,2.21 7.55,5 9.51,8.27 a 21.79,21.79 0 0 1 3,11.75 q 0,11.84 -9.77,19.45 -9.77,7.61 -25,7.59 -17.43,0 -26.16,-7 -8.73,-7 -8.65,-22.34 z m 36.33,-66 z m -0.51,93.54 z"
     id="path15" />
  <path
     d="m 1076.72,772.76 q 0,-9.69 6.66,-14.49 6.66,-4.8 19.71,-4.88 13.15,0 20.12,5.19 6.97,5.19 7,17.45 v 22.42 c 0,7.51 0.51,13.22 1.52,17.19 h -15.57 l -1.22,-7.19 a 22.27,22.27 0 0 1 -8.77,7 28.12,28.12 0 0 1 -10.55,1.85 q -10.32,0 -15.74,-5.12 c -3.63,-3.48 -5.44,-8 -5.44,-13.67 a 19.32,19.32 0 0 1 7.59,-16 q 7.69,-5.91 28.63,-5.92 h 3.27 v -3.55 a 8.55,8.55 0 0 0 -2.53,-6.49 c -1.71,-1.67 -4.45,-2.49 -8.25,-2.49 q -10.1,0 -10.1,8.73 z m 37.21,13.8 q -15.29,0 -19.26,3.41 a 10.13,10.13 0 0 0 -3.9,7.83 8.1,8.1 0 0 0 2.78,6.52 11.26,11.26 0 0 0 7.43,2.36 c 4.47,0 7.72,-1.5 9.79,-4.47 2.07,-2.97 3.16,-7.32 3.16,-12.91 z m -11.14,-38.61 z m 16.58,67.72 z m -38.73,-67.72 q 0,-8.16 3.23,-13.23 a 10.63,10.63 0 0 1 9.64,-5.12 14.29,14.29 0 0 1 7.13,2.09 c 2.43,1.37 4.37,2.53 5.82,3.52 a 8.92,8.92 0 0 0 4.71,1.73 2.69,2.69 0 0 0 2.85,-1.8 17.39,17.39 0 0 0 0.67,-5.54 h 10.13 c 0,5.92 -1.12,10.48 -3.34,13.65 a 10.88,10.88 0 0 1 -9.41,4.7 16.16,16.16 0 0 1 -8.6,-2.34 c -2.53,-1.56 -4.43,-2.72 -5.7,-3.46 a 7.89,7.89 0 0 0 -3.61,-1.54 2.75,2.75 0 0 0 -2.21,1.05 c -0.59,0.66 -1,2.75 -1.18,6.29 z m 22.15,0 z"
     id="path16" />
  <path
     d="m 1142.12,785.08 q 0,-14.62 7.82,-23.14 7.82,-8.52 23.27,-8.55 15.06,0 22.57,8.42 7.51,8.42 7.6,23.57 0,14.49 -8,23.2 -8,8.71 -22.63,8.73 -14.14,0 -22.41,-8.41 -8.27,-8.41 -8.2,-23.82 z m 16.32,0.13 q 0,21.48 14.52,21.47 14.09,0 14.09,-21.18 0,-21.48 -14.09,-21.47 -14.52,0 -14.52,21.18 z m 14.81,-37.26 z m -0.25,67.72 z"
     id="path17" />
  <path
     d="m 1260.44,729.34 h 29.92 q 32.88,0 32.87,26.58 0,27 -30.26,27 h -14.68 v 32.78 h -17.85 z m 17.85,13.42 v 26.69 h 11.94 q 15.17,0 15.15,-13.55 0,-13.15 -14,-13.16 z"
     id="path18" />
  <path
     d="m 1333.46,772.76 c 0,-6.46 2.21,-11.29 6.67,-14.49 4.46,-3.2 11,-4.88 19.7,-4.88 8.7,0 15.48,1.73 20.12,5.19 4.64,3.46 7,9.29 7,17.45 v 22.42 c 0,7.51 0.51,13.22 1.52,17.19 h -15.57 l -1.26,-7.19 a 22.27,22.27 0 0 1 -8.77,7 28.08,28.08 0 0 1 -10.55,1.85 q -10.32,0 -15.74,-5.12 c -3.63,-3.48 -5.44,-8 -5.44,-13.67 a 19.32,19.32 0 0 1 7.59,-16 q 7.69,-5.91 28.63,-5.92 h 3.28 v -3.55 a 8.55,8.55 0 0 0 -2.53,-6.49 c -1.71,-1.67 -4.45,-2.49 -8.25,-2.49 q -10.1,0 -10.1,8.73 z m 37.21,13.8 q -15.29,0 -19.26,3.41 a 10.13,10.13 0 0 0 -3.9,7.83 8.1,8.1 0 0 0 2.78,6.52 11.26,11.26 0 0 0 7.43,2.36 c 4.47,0 7.72,-1.5 9.79,-4.47 2.07,-2.97 3.16,-7.32 3.16,-12.91 z m -11.14,-38.61 z m 16.59,67.72 z"
     id="path19" />
  <path
     d="m 1400.76,755.04 h 16.32 v 33.75 q 0,10.63 3,14.31 a 10.32,10.32 0 0 0 8.37,3.58 14,14 0 0 0 9.75,-3.58 q 4,-3.67 4,-17.41 v -30.65 h 16.32 v 60.63 h -16.32 v -8.86 a 22.4,22.4 0 0 1 -7.85,7.66 23.32,23.32 0 0 1 -11.9,2.84 q -11,0 -16.33,-5.88 c -3.54,-3.9 -5.31,-10.68 -5.31,-20.27 v -36.12 z m 28.88,-7.09 z m 14.68,67.72 z m -50.76,-62.28 z"
     id="path20" />
  <path
     d="m 1472.88,815.67 v -87.22 h 16.33 v 87.21 z m 8.23,-93.29 z m 0,93.29 z m -15.19,-87.85 z"
     id="path21" />
  <path
     d="m 1501.57,785.08 q 0,-14.62 7.83,-23.14 7.83,-8.52 23.27,-8.55 15.06,0 22.57,8.42 7.51,8.42 7.6,23.57 0,14.49 -8,23.2 -8,8.71 -22.63,8.73 -14.15,0 -22.41,-8.41 -8.26,-8.41 -8.21,-23.82 z m 16.33,0.13 q 0,21.48 14.52,21.47 14.07,0 14.09,-21.18 0,-21.48 -14.09,-21.47 -14.54,0 -14.52,21.18 z m 14.81,-37.26 z m -0.25,67.72 z"
     id="path22" />
  <metadata
     id="metadata50">
    <rdf:RDF>
      <cc:Work
         rdf:about="">
        <dc:title>logo-USP-FOB</dc:title>
      </cc:Work>
    </rdf:RDF>
  </metadata>
</svg>
